<?xml version="1.0" encoding="UTF-8"?>
<svg version="1.1" xmlns="http://www.w3.org/2000/svg" width="110" height="118">
<path d="M0 0 C8.30300373 -0.33212015 14.28307526 0.65699169 21 6 C22.55301905 8.81022494 23.00027459 11.00200059 23.4375 14.1875 C23.623125 15.115625 23.80875 16.04375 24 17 C27.03697329 19.02464886 28.37859106 19.32895408 31.875 19.8125 C36.73771041 20.75959767 39.08055306 21.79256176 42 26 C43.53952514 29.60746816 44.82710024 33.2585153 46 37 C48.75893106 35.9451146 51.26666938 34.84625131 53.83203125 33.3671875 C57.74891592 31.67679338 60.45354834 31.7963948 64.6875 32.125 C65.99074219 32.21007813 67.29398437 32.29515625 68.63671875 32.3828125 C72 33 72 33 73.8984375 34.36328125 C75.85940131 37.27691188 75.94441305 39.49802229 76 43 C74.92117976 46.45827423 73.53668503 49.72217828 72 53 C71.34 53 70.68 53 70 53 C69.72414063 53.59039062 69.44828125 54.18078125 69.1640625 54.7890625 C65.66217516 61.44029818 60.0102243 65.7254252 54 70 C53.67 70.33 53.34 70.66 53 71 C45.77613341 71.41638909 38.81831049 71.59745162 32 69 C32.77030122 72.48809191 32.77030122 72.48809191 34 76 C35.485 76.495 35.485 76.495 37 77 C39.76486456 80.62261132 39.18301155 84.8570871 39.0625 89.1875 C38.96999689 95.22525481 39.1287126 101.00989915 40 107 C40.78375 107.268125 41.5675 107.53625 42.375 107.8125 C45 109 45 109 47 112 C47.125 114.6875 47.125 114.6875 47 117 C43.04172765 117.05785647 39.0835633 117.09354717 35.125 117.125 C33.99707031 117.14175781 32.86914062 117.15851563 31.70703125 117.17578125 C30.09248047 117.18544922 30.09248047 117.18544922 28.4453125 117.1953125 C27.45031738 117.20578613 26.45532227 117.21625977 25.43017578 117.22705078 C23 117 23 117 21 115 C21.32110689 111.46782421 21.87816502 108.36550494 23 105 C22.360625 104.0925 21.72125 103.185 21.0625 102.25 C18.64278128 98.4371099 18.58187629 96.43211138 19 92 C19.495 90.515 19.495 90.515 20 89 C16.83047153 85.73991357 13.60062011 82.77762123 10 80 C9.67386719 80.67546875 9.34773438 81.3509375 9.01171875 82.046875 C8.57472656 82.93890625 8.13773438 83.8309375 7.6875 84.75 C7.25824219 85.63171875 6.82898437 86.5134375 6.38671875 87.421875 C5 90 5 90 3.53125 91.90625 C1.50369429 94.67862209 0.22050018 97.62111071 -1.1875 100.75 C-1.71730469 101.92046875 -2.24710938 103.0909375 -2.79296875 104.296875 C-3.39044922 105.63492188 -3.39044922 105.63492188 -4 107 C-3.34 107 -2.68 107 -2 107 C2 113.5 2 113.5 2 118 C-4.93 118 -11.86 118 -19 118 C-21 114 -21 114 -20.57421875 111.625 C-20.28160156 110.75875 -19.98898438 109.8925 -19.6875 109 C-18.10703947 103.85142551 -17.57994549 99.09664809 -17.40625 93.7265625 C-16.93212573 90.54445922 -15.69191582 88.70619094 -14 86 C-13.44327186 83.80480783 -13.44327186 83.80480783 -13.3125 81.6875 C-13.209375 80.470625 -13.10625 79.25375 -13 78 C-14.03125 77.773125 -15.0625 77.54625 -16.125 77.3125 C-21.48736315 75.78971939 -24.90940258 72.63589613 -28 68 C-28.08309663 64.79174732 -27.99560899 61.65121594 -27.83398438 58.44921875 C-27.636756 54.56972719 -27.636756 54.56972719 -29.39453125 51.26171875 C-29.92433594 50.84535156 -30.45414063 50.42898437 -31 50 C-34.07913498 44.48932588 -34.37375103 40.08375457 -33 34 C-31.4375 30.5 -31.4375 30.5 -30 28 C-29.34 28 -28.68 28 -28 28 C-28 27.34 -28 26.68 -28 26 C-23.77050005 23.58314288 -20.87664009 22.65166856 -16 23 C-15.773125 22.195625 -15.54625 21.39125 -15.3125 20.5625 C-14.879375 19.716875 -14.44625 18.87125 -14 18 C-11.375 17.1875 -11.375 17.1875 -9 17 C-8.896875 15.989375 -8.79375 14.97875 -8.6875 13.9375 C-7.94972629 9.71206877 -6.969958 6.78838078 -5 3 C-4.01 2.67 -3.02 2.34 -2 2 C-1.34 2.33 -0.68 2.66 0 3 C0 2.01 0 1.02 0 0 Z " fill="#152929" transform="translate(34,0)"/>
<path d="M0 0 C8.30300373 -0.33212015 14.28307526 0.65699169 21 6 C22.55301905 8.81022494 23.00027459 11.00200059 23.4375 14.1875 C23.623125 15.115625 23.80875 16.04375 24 17 C27.03697329 19.02464886 28.37859106 19.32895408 31.875 19.8125 C35.26458182 20.47557148 37.08644564 21.0546901 40.0625 22.9375 C42.89411339 27.41327601 42.89967775 31.7923632 43 37 C42.0925 37.37125 41.185 37.7425 40.25 38.125 C35.42172932 40.91054078 33.28856293 45.04144698 31 50 C29.50178941 46.62902617 29 44.79557881 29 41 C26.36 40.67 23.72 40.34 21 40 C21.33 38.68 21.66 37.36 22 36 C21.34 36 20.68 36 20 36 C19.505 33.03 19.505 33.03 19 30 C17.35 29.67 15.7 29.34 14 29 C14.495 32.465 14.495 32.465 15 36 C14.34 36 13.68 36 13 36 C12.3125 33.1875 12.3125 33.1875 12 30 C13.4375 28.125 13.4375 28.125 15 27 C14.01 27.33 13.02 27.66 12 28 C11.855625 28.928125 11.71125 29.85625 11.5625 30.8125 C11 34 11 34 10 37 C7.2265625 38.28125 7.2265625 38.28125 3.625 39.5 C2.9959375 39.71793213 2.366875 39.93586426 1.71875 40.16040039 C-2.14875232 41.47517503 -6.02483857 42.5121525 -10 43.4375 C-15.27020611 44.82112343 -17.73516467 46.61824732 -21 51 C-21.9572804 54.21853935 -21.9572804 54.21853935 -22 57 C-20.35 57.33 -18.7 57.66 -17 58 C-16.67 58.99 -16.34 59.98 -16 61 C-18.64 61 -21.28 61 -24 61 C-24 63.97 -24 66.94 -24 70 C-19.9899066 70.17864631 -19.9899066 70.17864631 -16 70 C-15.01 69.01 -15.01 69.01 -14 68 C-14.33 70.31 -14.66 72.62 -15 75 C-14.01 75 -13.02 75 -12 75 C-12 75.66 -12 76.32 -12 77 C-11.0925 76.95875 -10.185 76.9175 -9.25 76.875 C-6.09931762 76.99618009 -4.54596259 77.2083967 -2 79 C-1.67 79.99 -1.34 80.98 -1 82 C0.98 81.01 0.98 81.01 3 80 C3.99 80.66 4.98 81.32 6 82 C6.57737435 85.62921022 6.35389668 87.44193215 4.375 90.5625 C4.01664063 91.04074219 3.65828125 91.51898438 3.2890625 92.01171875 C0.27404129 96.66216055 -1.75076772 101.94672482 -4 107 C-3.34 107 -2.68 107 -2 107 C2 113.5 2 113.5 2 118 C-4.93 118 -11.86 118 -19 118 C-21 114 -21 114 -20.57421875 111.625 C-20.28160156 110.75875 -19.98898438 109.8925 -19.6875 109 C-18.10703947 103.85142551 -17.57994549 99.09664809 -17.40625 93.7265625 C-16.93212573 90.54445922 -15.69191582 88.70619094 -14 86 C-13.44327186 83.80480783 -13.44327186 83.80480783 -13.3125 81.6875 C-13.209375 80.470625 -13.10625 79.25375 -13 78 C-14.03125 77.773125 -15.0625 77.54625 -16.125 77.3125 C-21.48736315 75.78971939 -24.90940258 72.63589613 -28 68 C-28.08309663 64.79174732 -27.99560899 61.65121594 -27.83398438 58.44921875 C-27.636756 54.56972719 -27.636756 54.56972719 -29.39453125 51.26171875 C-29.92433594 50.84535156 -30.45414063 50.42898437 -31 50 C-34.07913498 44.48932588 -34.37375103 40.08375457 -33 34 C-31.4375 30.5 -31.4375 30.5 -30 28 C-29.34 28 -28.68 28 -28 28 C-28 27.34 -28 26.68 -28 26 C-23.77050005 23.58314288 -20.87664009 22.65166856 -16 23 C-15.773125 22.195625 -15.54625 21.39125 -15.3125 20.5625 C-14.879375 19.716875 -14.44625 18.87125 -14 18 C-11.375 17.1875 -11.375 17.1875 -9 17 C-8.896875 15.989375 -8.79375 14.97875 -8.6875 13.9375 C-7.94972629 9.71206877 -6.969958 6.78838078 -5 3 C-4.01 2.67 -3.02 2.34 -2 2 C-1.34 2.33 -0.68 2.66 0 3 C0 2.01 0 1.02 0 0 Z " fill="#112627" transform="translate(34,0)"/>
<path d="M0 0 C2.63812812 1.91714901 2.95872074 2.86515442 3.9375 6.0625 C4.02154126 11.35709944 2.22014003 15.2643365 0 20 C-0.66 20 -1.32 20 -2 20 C-2.27585938 20.59039062 -2.55171875 21.18078125 -2.8359375 21.7890625 C-6.33782484 28.44029818 -11.9897757 32.7254252 -18 37 C-18.33 37.33 -18.66 37.66 -19 38 C-25.09690716 38.51668705 -28.15069031 38.0778286 -33 34 C-36.73326318 29.8519298 -39.276668 26.23625666 -39.375 20.5625 C-39.40335937 19.82128906 -39.43171875 19.08007812 -39.4609375 18.31640625 C-38.6171753 14.07614366 -35.8945513 11.66492632 -32.51953125 9.15625 C-30.63374768 8.00246611 -28.74269389 6.85727064 -26.84765625 5.71875 C-24.06168524 4.09269223 -24.06168524 4.09269223 -21.80859375 2.40625 C-15.09507506 -2.17983487 -7.7208152 -1.6293327 0 0 Z " fill="#79E5EE" transform="translate(106,33)"/>
<path d="M0 0 C0.14695313 0.75023437 0.29390625 1.50046875 0.4453125 2.2734375 C1.93001077 9.04843997 3.94670354 14.22272013 7.890625 19.94140625 C8.25671875 20.62074219 8.6228125 21.30007812 9 22 C7.76952308 25.69143077 6.27668685 26.14668575 2.93383789 27.85546875 C2.25442139 28.19191406 1.57500488 28.52835938 0.875 28.875 C-5.29985574 32.00507362 -5.29985574 32.00507362 -10.9375 36 C-15.04200428 38.68049259 -17.17527445 38.48247255 -22 38 C-22.99 37.67 -23.98 37.34 -25 37 C-25 35.35 -25 33.7 -25 32 C-25.495 32.495 -25.495 32.495 -26 33 C-27.8125 32.94921875 -27.8125 32.94921875 -30 32.6875 C-30.721875 32.60886719 -31.44375 32.53023437 -32.1875 32.44921875 C-32.785625 32.30097656 -33.38375 32.15273437 -34 32 C-35.49106457 29.01787087 -35.11941467 26.28390342 -35 23 C-34 22 -34 22 -31.0625 21.875 C-28 22 -28 22 -26 23 C-28.05233685 20.7522025 -29.00667261 19.9977758 -32 19 C-32.51079353 16.0082093 -32.49056837 13.86406929 -30.96875 11.18359375 C-26.25046381 5.61072001 -20.36674548 4.35806364 -13.5234375 2.82421875 C-10.09081288 2.12335983 -10.09081288 2.12335983 -7.3515625 0.89453125 C-4.7490934 -0.09544454 -2.7607235 -0.15775563 0 0 Z " fill="#7CF4F8" transform="translate(44,38)"/>
<path d="M0 0 C2.56839801 3.83748878 2.1856956 7.76063951 2.0625 12.1875 C1.96999689 18.22525481 2.1287126 24.00989915 3 30 C3.78375 30.268125 4.5675 30.53625 5.375 30.8125 C8 32 8 32 10 35 C10.125 37.6875 10.125 37.6875 10 40 C6.04172765 40.05785647 2.0835633 40.09354717 -1.875 40.125 C-3.00292969 40.14175781 -4.13085938 40.15851563 -5.29296875 40.17578125 C-6.90751953 40.18544922 -6.90751953 40.18544922 -8.5546875 40.1953125 C-10.04718018 40.21102295 -10.04718018 40.21102295 -11.56982422 40.22705078 C-14 40 -14 40 -16 38 C-15.67889311 34.46782421 -15.12183498 31.36550494 -14 28 C-14.639375 27.0925 -15.27875 26.185 -15.9375 25.25 C-18.42989702 21.32258651 -18.63153004 19.57859283 -18 15 C-16.39938461 10.76812908 -14.52981149 6.93231736 -11 4 C-8.8125 4.3125 -8.8125 4.3125 -7 5 C-6.731875 4.360625 -6.46375 3.72125 -6.1875 3.0625 C-4.60976325 0.32222039 -3.09853405 0 0 0 Z " fill="#080F10" transform="translate(71,77)"/>
<path d="M0 0 C4.10259573 3.14532339 4.68933819 6.10091677 5.41015625 10.9765625 C5.87589419 13.38206025 5.87589419 13.38206025 9 15 C10.61594773 15.32045065 12.24311717 15.58681408 13.875 15.8125 C17.26458182 16.47557148 19.08644564 17.0546901 22.0625 18.9375 C24.89411339 23.41327601 24.89967775 27.7923632 25 33 C24.0925 33.37125 23.185 33.7425 22.25 34.125 C17.42172932 36.91054078 15.28856293 41.04144698 13 46 C11.50178941 42.62902617 11 40.79557881 11 37 C7.04 36.505 7.04 36.505 3 36 C3.14308594 34.98679687 3.14308594 34.98679687 3.2890625 33.953125 C3.39992188 33.06109375 3.51078125 32.1690625 3.625 31.25 C3.74101563 30.36828125 3.85703125 29.4865625 3.9765625 28.578125 C4.00230692 25.74623844 3.3097853 24.44919203 2 22 C2.33 21.34 2.66 20.68 3 20 C2.34 20 1.68 20 1 20 C1 16.66666667 1 13.33333333 1 10 C0.67 10 0.34 10 0 10 C-1.125 2.25 -1.125 2.25 0 0 Z " fill="#0E1F1F" transform="translate(52,4)"/>
<path d="M0 0 C0.928125 0.0825 1.85625 0.165 2.8125 0.25 C-0.9375 2.25 -0.9375 2.25 -3.1875 2.25 C-3.1875 4.89 -3.1875 7.53 -3.1875 10.25 C-2.5275 10.25 -1.8675 10.25 -1.1875 10.25 C-1.538125 9.46625 -1.88875 8.6825 -2.25 7.875 C-2.559375 7.00875 -2.86875 6.1425 -3.1875 5.25 C-2.8575 4.59 -2.5275 3.93 -2.1875 3.25 C-0.52138095 3.207279 1.14632885 3.20936168 2.8125 3.25 C3.8125 4.25 3.8125 4.25 3.875 7.3125 C3.854375 8.281875 3.83375 9.25125 3.8125 10.25 C4.4725 10.25 5.1325 10.25 5.8125 10.25 C5.8125 11.57 5.8125 12.89 5.8125 14.25 C6.26625 14.70375 6.72 15.1575 7.1875 15.625 C9.42453722 17.86203722 9.94698371 20.25398207 10.8125 23.25 C9.4925 23.25 8.1725 23.25 6.8125 23.25 C6.64295771 28.09474043 6.64295771 28.09474043 7.75 32.75 C7.8125 35.25 7.8125 35.25 6.49609375 37.0078125 C3.28341515 40.32457356 -0.00363399 43.21783651 -4.1875 45.25 C-4.8475 45.25 -5.5075 45.25 -6.1875 45.25 C-6.1875 44.59 -6.1875 43.93 -6.1875 43.25 C-6.765 43.765625 -7.3425 44.28125 -7.9375 44.8125 C-10.1875 46.25 -10.1875 46.25 -12.4375 45.9375 C-13.015 45.710625 -13.5925 45.48375 -14.1875 45.25 C-10.98259037 42.65962402 -7.63399547 40.87056844 -3.9375 39.0625 C-2.85984375 38.53269531 -1.7821875 38.00289062 -0.671875 37.45703125 C0.14796875 37.05871094 0.9678125 36.66039062 1.8125 36.25 C0.56897693 32.93586643 -0.86973746 30.05408189 -2.75 27.0625 C-5.22246694 22.76098588 -5.80497615 19.13818186 -5.94921875 14.21875 C-6.02785156 13.5690625 -6.10648438 12.919375 -6.1875 12.25 C-6.8475 11.92 -7.5075 11.59 -8.1875 11.25 C-7.5275 10.92 -6.8675 10.59 -6.1875 10.25 C-6.2803125 8.88875 -6.2803125 8.88875 -6.375 7.5 C-6.1875 4.25 -6.1875 4.25 -5.0625 1.875 C-3.1875 0.25 -3.1875 0.25 0 0 Z " fill="#255759" transform="translate(50.1875,25.75)"/>
<path d="M0 0 C6.88057626 -0.27522305 12.09876585 0.0658439 18 4 C18.51171875 6.1640625 18.51171875 6.1640625 18.6875 8.625 C18.78611328 9.85089844 18.78611328 9.85089844 18.88671875 11.1015625 C18.92410156 11.72804688 18.96148437 12.35453125 19 13 C19.66 12.67 20.32 12.34 21 12 C20.690625 12.70125 20.38125 13.4025 20.0625 14.125 C18.96697322 17.08936657 18.43577008 19.87698108 18 23 C17.67 23 17.34 23 17 23 C16.67 21.02 16.34 19.04 16 17 C15.67 18.65 15.34 20.3 15 22 C13.35 22 11.7 22 10 22 C9.67 20.68 9.34 19.36 9 18 C8.34 19.98 7.68 21.96 7 24 C6.67 24 6.34 24 6 24 C5.79375 22.948125 5.5875 21.89625 5.375 20.8125 C4.14310195 16.35592764 1.68218037 14.64156418 -2 12 C-1.34 11.67 -0.68 11.34 0 11 C-1.485 8.03 -1.485 8.03 -3 5 C-3.66 5.66 -4.32 6.32 -5 7 C-4.72382467 8.94074861 -4.72382467 8.94074861 -4 11 C-3.66666667 12.33333333 -3.33333333 13.66666667 -3 15 C-4.65 13.35 -6.3 11.7 -8 10 C-6.6875 6.5625 -6.6875 6.5625 -5 3 C-4.01 2.67 -3.02 2.34 -2 2 C-1.34 2.33 -0.68 2.66 0 3 C0 2.01 0 1.02 0 0 Z " fill="#224446" transform="translate(34,0)"/>
<path d="M0 0 C1.5625 1.75 1.5625 1.75 3 4 C2.58984375 6.140625 2.58984375 6.140625 2 8 C2.5053125 8.32871094 3.010625 8.65742188 3.53125 8.99609375 C8.77456784 12.83495146 8.77456784 12.83495146 9.46484375 16.40234375 C9.44011598 18.63844091 9.30992125 20.78627681 9 23 C7.22265625 24.078125 7.22265625 24.078125 5 25 C1.28665164 23.69707075 -1.72739052 22.18173966 -5 20 C-3.02 23.3 -1.04 26.6 1 30 C0.34 30.66 -0.32 31.32 -1 32 C-1.35191406 31.38511719 -1.70382813 30.77023438 -2.06640625 30.13671875 C-5.45164707 24.59482321 -7.73353153 21.87994054 -14 20 C-12.8125 17.0625 -12.8125 17.0625 -11 14 C-8.3125 13.125 -8.3125 13.125 -6 13 C-5.67 11.02 -5.34 9.04 -5 7 C-4.01 7.33 -3.02 7.66 -2 8 C-2.33 7.34 -2.66 6.68 -3 6 C-2.5434221 3.07790143 -2.14720899 2.14720899 0 0 Z " fill="#0A1314" transform="translate(31,4)"/>
<path d="M0 0 C2.50881689 1.94304725 2.98267415 2.94340223 3.9375 6.0625 C4.02154126 11.35709944 2.22014003 15.2643365 0 20 C-0.66 20 -1.32 20 -2 20 C-2 19.34 -2 18.68 -2 18 C-2.9075 18.061875 -3.815 18.12375 -4.75 18.1875 C-8.37761533 17.9782145 -9.5090315 17.57993166 -12 15 C-14.44719811 10.71740331 -14.16264675 6.79807927 -14 2 C-9.59002713 -0.27611503 -4.87744001 -0.8494418 0 0 Z " fill="#234649" transform="translate(106,33)"/>
<path d="M0 0 C1.65 0 3.3 0 5 0 C5.33 0.99 5.66 1.98 6 3 C6.59167969 2.86980469 7.18335937 2.73960938 7.79296875 2.60546875 C14.24861031 1.47862756 14.24861031 1.47862756 18.0625 4.125 C20.17883809 7.26537264 20.18998453 8.35965125 20 12 C16.04172765 12.05785647 12.0835633 12.09354717 8.125 12.125 C6.99707031 12.14175781 5.86914062 12.15851563 4.70703125 12.17578125 C3.09248047 12.18544922 3.09248047 12.18544922 1.4453125 12.1953125 C-0.04718018 12.21102295 -0.04718018 12.21102295 -1.56982422 12.22705078 C-4 12 -4 12 -6 10 C-5.625 6.375 -5.625 6.375 -5 3 C-4.01 2.67 -3.02 2.34 -2 2 C-1.7525 2.639375 -1.505 3.27875 -1.25 3.9375 C-0.18437567 6.18741541 -0.18437567 6.18741541 2.125 6.75 C2.74375 6.8325 3.3625 6.915 4 7 C4 6.34 4 5.68 4 5 C2.68 4.67 1.36 4.34 0 4 C0 2.68 0 1.36 0 0 Z " fill="#467383" transform="translate(61,105)"/>
<path d="M0 0 C-0.33 0.99 -0.66 1.98 -1 3 C-2.32 3 -3.64 3 -5 3 C-4.71572583 4.58467728 -4.42225182 6.1677057 -4.125 7.75 C-3.88136719 9.07257812 -3.88136719 9.07257812 -3.6328125 10.421875 C-3.01276492 12.94799478 -2.46083953 14.84718385 -1 17 C0.93981618 17.90609992 0.93981618 17.90609992 3.125 18.25 C4.40375 18.4975 5.6825 18.745 7 19 C6.08563349 25.67834778 1.86535868 29.64685588 -3.20703125 33.8125 C-5.11585594 35.24325868 -7.05043152 36.62579197 -9 38 C-9.495 38.495 -9.495 38.495 -10 39 C-15.73611111 39.27314815 -15.73611111 39.27314815 -18 39 C-18.66 38.34 -19.32 37.68 -20 37 C-18.63875 37.0928125 -18.63875 37.0928125 -17.25 37.1875 C-13.65620765 36.98016583 -12.65463057 36.27539763 -10 34 C-9.34 34 -8.68 34 -8 34 C-7.67 33.01 -7.34 32.02 -7 31 C-2.54285714 27 -2.54285714 27 0 27 C-1.06667408 23.20738106 -2.82903992 21.02646578 -5.5 18.25 C-8.86627542 14.59100498 -9.96781434 11.67226284 -10.61328125 6.78515625 C-10.74089844 6.19605469 -10.86851563 5.60695313 -11 5 C-11.66 4.67 -12.32 4.34 -13 4 C-8.38987758 1.04952165 -5.63470383 -0.5497272 0 0 Z " fill="#538F96" transform="translate(97,32)"/>
<path d="M0 0 C0.66 0.99 1.32 1.98 2 3 C5.93075644 2.42547254 5.93075644 2.42547254 9 0 C11.68839385 -0.26991906 14.29141936 -0.08737357 17 0 C21 6.5 21 6.5 21 11 C14.07 11 7.14 11 0 11 C-2 7 -2 7 -1.125 3.25 C-0.75375 2.1775 -0.3825 1.105 0 0 Z " fill="#3B6475" transform="translate(15,107)"/>
<path d="M0 0 C0.66 0 1.32 0 2 0 C2 0.99 2 1.98 2 3 C0.68 3.33 -0.64 3.66 -2 4 C-2.33 7.3 -2.66 10.6 -3 14 C-2.01 14.66 -1.02 15.32 0 16 C0.25 19.5625 0.25 19.5625 0 23 C-0.33 23.33 -0.66 23.66 -1 24 C-1.07179964 25.51928038 -1.08392007 27.04167482 -1.0625 28.5625 C-1.05347656 29.38878906 -1.04445313 30.21507813 -1.03515625 31.06640625 C-1.02355469 31.70449219 -1.01195312 32.34257813 -1 33 C3.0100934 33.17864631 3.0100934 33.17864631 7 33 C7.66 32.34 8.32 31.68 9 31 C8.67 33.31 8.34 35.62 8 38 C9.485 38.495 9.485 38.495 11 39 C10.67 39.66 10.34 40.32 10 41 C3.14536753 39.49198086 -0.99764464 37.00353304 -5 31 C-5.08309663 27.79174732 -4.99560899 24.65121594 -4.83398438 21.44921875 C-4.6585597 17.5200704 -4.6585597 17.5200704 -6.4296875 14.1484375 C-6.94789062 13.76945312 -7.46609375 13.39046875 -8 13 C-9.95555061 9.91228852 -10.20149192 7.62685461 -10 4 C-9.36191406 3.79503906 -8.72382813 3.59007812 -8.06640625 3.37890625 C-7.24011719 3.10949219 -6.41382813 2.84007812 -5.5625 2.5625 C-4.73878906 2.29566406 -3.91507812 2.02882812 -3.06640625 1.75390625 C-1.03780412 1.17844506 -1.03780412 1.17844506 0 0 Z " fill="#0D191C" transform="translate(11,37)"/>
<path d="M0 0 C1.32 0.33 2.64 0.66 4 1 C3.93039063 1.96099609 3.93039063 1.96099609 3.859375 2.94140625 C3.59584381 9.25674309 4.19566838 12.89132611 8 18 C8.99 18.33 9.98 18.66 11 19 C11.9375 21.0625 11.9375 21.0625 12 24 C8.87851106 28.23299835 4.72871084 31.70319759 0 34 C-0.66 34 -1.32 34 -2 34 C-2 33.34 -2 32.68 -2 32 C-2.5775 32.515625 -3.155 33.03125 -3.75 33.5625 C-6 35 -6 35 -8.25 34.6875 C-8.8275 34.460625 -9.405 34.23375 -10 34 C-6.79509037 31.40962402 -3.44649547 29.62056844 0.25 27.8125 C1.86648437 27.01779297 1.86648437 27.01779297 3.515625 26.20703125 C4.33546875 25.80871094 5.1553125 25.41039063 6 25 C4.75360919 21.64118157 3.28734688 18.85141678 1.3125 15.875 C-1.77679764 10.51841081 -1.11461096 5.90412738 0 0 Z " fill="#224F50" transform="translate(46,37)"/>
<path d="M0 0 C1.62756322 4.11677756 2.41756655 6.74730036 1 11 C-0.4375 13.8125 -0.4375 13.8125 -2 16 C-2.66 16 -3.32 16 -4 16 C-4 14.35 -4 12.7 -4 11 C-4.33 11.33 -4.66 11.66 -5 12 C-6.8125 11.94921875 -6.8125 11.94921875 -9 11.6875 C-9.721875 11.60886719 -10.44375 11.53023437 -11.1875 11.44921875 C-11.785625 11.30097656 -12.38375 11.15273437 -13 11 C-14.49106457 8.01787087 -14.11941467 5.28390342 -14 2 C-13.67 1.67 -13.34 1.34 -13 1 C-10.96994518 1 -8.93935573 1.00357588 -6.91015625 1.0625 C-4.27637267 0.97632303 -2.78127965 0 0 0 Z " fill="#61D4DD" transform="translate(23,59)"/>
<path d="M0 0 C2.83374881 3.20336822 3.5205537 5.78087253 4 10 C3.38511719 10.38671875 2.77023438 10.7734375 2.13671875 11.171875 C1.32847656 11.69265625 0.52023438 12.2134375 -0.3125 12.75 C-1.51326172 13.51570313 -1.51326172 13.51570313 -2.73828125 14.296875 C-5.6777913 16.51039207 -7.64453159 18.42409004 -8.46875 22.078125 C-8.55706721 28.2161712 -7.06607638 32.35605747 -3 37 C-1.06720075 38.56615583 0.83961143 39.74396013 3 41 C3 41.33 3 41.66 3 42 C-2.50090403 42.25004109 -5.08514752 41.6960122 -9.1875 38.0625 C-12.23346114 32.91587601 -12.59134593 27.35444906 -11.55859375 21.49609375 C-10.04105068 16.371134 -7.87034659 12.68604437 -4 9 C-1.1875 8.125 -1.1875 8.125 1 8 C0.67 5.36 0.34 2.72 0 0 Z " fill="#1F3A3E" transform="translate(76,29)"/>
<path d="M0 0 C0.66 0 1.32 0 2 0 C1.1875 1.9375 1.1875 1.9375 0 4 C-0.99 4.33 -1.98 4.66 -3 5 C-3.33 5.99 -3.66 6.98 -4 8 C-4.66 8 -5.32 8 -6 8 C-7.47039891 10.94079782 -8.71190726 13.97578226 -10 17 C-10.33 17 -10.66 17 -11 17 C-11 15.35 -11 13.7 -11 12 C-13.35367713 11.3121764 -13.35367713 11.3121764 -16 11 C-16.99 11.66 -17.98 12.32 -19 13 C-19 11.68 -19 10.36 -19 9 C-20.65 9 -22.3 9 -24 9 C-24 8.67 -24 8.34 -24 8 C-25.65 7.67 -27.3 7.34 -29 7 C-29 6.67 -29 6.34 -29 6 C-27.7625 5.896875 -26.525 5.79375 -25.25 5.6875 C-21.672448 5.2576881 -19.73817407 4.42223091 -17 2 C-16.34 2 -15.68 2 -15 2 C-15 3.65 -15 5.3 -15 7 C-13.05925139 6.72382467 -13.05925139 6.72382467 -11 6 C-10.34 5.01 -9.68 4.02 -9 3 C-6.8359375 2.48828125 -6.8359375 2.48828125 -4.375 2.3125 C-3.55773437 2.24675781 -2.74046875 2.18101563 -1.8984375 2.11328125 C-1.27195312 2.07589844 -0.64546875 2.03851563 0 2 C0 1.34 0 0.68 0 0 Z " fill="#1B3536" transform="translate(51,70)"/>
<path d="M0 0 C2.97 0 5.94 0 9 0 C9.33 1.32 9.66 2.64 10 4 C10.99 4 11.98 4 13 4 C13 4.99 13 5.98 13 7 C12.01 7.33 11.02 7.66 10 8 C9.67 8.66 9.34 9.32 9 10 C10.32 10 11.64 10 13 10 C12.3125 11.9375 12.3125 11.9375 11 14 C8.625 14.9375 8.625 14.9375 6 15 C3.6875 13.875 3.6875 13.875 2 12 C1.957279 10.33388095 1.95936168 8.66617115 2 7 C1.01268258 5.65724831 0.01405257 4.32267727 -1 3 C-0.67 2.01 -0.34 1.02 0 0 Z " fill="#456E70" transform="translate(34,0)"/>
<path d="M0 0 C0.66 0 1.32 0 2 0 C5.66700794 4.52499377 7.71141093 9.37706588 9 15 C10.65 14.67 12.3 14.34 14 14 C14 13.34 14 12.68 14 12 C14.66 12 15.32 12 16 12 C15.34 13.98 14.68 15.96 14 18 C13.34 18 12.68 18 12 18 C12 17.34 12 16.68 12 16 C11.0925 16.061875 10.185 16.12375 9.25 16.1875 C5.62238467 15.9782145 4.4909685 15.57993166 2 13 C-0.44719811 8.71740331 -0.16264675 4.79807927 0 0 Z " fill="#2A5556" transform="translate(92,35)"/>
<path d="M0 0 C2.71000247 0.28526342 4.55647772 0.69412256 6.8125 2.25 C8.42982809 4.63343087 8.36169769 6.17875799 8 9 C7.34 9.66 6.68 10.32 6 11 C2.9375 10.75 2.9375 10.75 0 10 C-1.49106457 7.01787087 -1.11941467 4.28390342 -1 1 C-0.67 0.67 -0.34 0.34 0 0 Z " fill="#75DDE7" transform="translate(10,60)"/>
<path d="M0 0 C2.475 0.495 2.475 0.495 5 1 C4.14971587 6.73941786 0.23869415 9.93432051 -4.1875 13.25 C-4.88230469 13.75015625 -5.57710937 14.2503125 -6.29296875 14.765625 C-7.94273656 15.88985147 -7.94273656 15.88985147 -9 17 C-14.73611111 17.27314815 -14.73611111 17.27314815 -17 17 C-17.66 16.34 -18.32 15.68 -19 15 C-18.0925 15.061875 -17.185 15.12375 -16.25 15.1875 C-12.65620765 14.98016583 -11.65463057 14.27539763 -9 12 C-8.34 12 -7.68 12 -7 12 C-6.67 11.01 -6.34 10.02 -6 9 C-1.54285714 5 -1.54285714 5 1 5 C0.67 3.35 0.34 1.7 0 0 Z " fill="#5FBCCD" transform="translate(96,54)"/>
<path d="M0 0 C2.83374881 3.20336822 3.5205537 5.78087253 4 10 C3.40832031 10.37511719 2.81664063 10.75023437 2.20703125 11.13671875 C-2.35981624 14.09436713 -6.3317794 16.97679031 -10 21 C-9.59706614 15.35892602 -7.94275538 12.85314731 -4 9 C-1.1875 8.125 -1.1875 8.125 1 8 C0.67 5.36 0.34 2.72 0 0 Z " fill="#173939" transform="translate(76,29)"/>
<path d="M0 0 C1.43655854 -0.08131463 2.8744483 -0.13933559 4.3125 -0.1875 C5.51326172 -0.23970703 5.51326172 -0.23970703 6.73828125 -0.29296875 C9 0 9 0 10.74609375 1.2890625 C12.73058084 3.99686731 12.76133298 6.71832851 13 10 C12.67 10.66 12.34 11.32 12 12 C10.02 12 8.04 12 6 12 C6.99 11.67 7.98 11.34 9 11 C8.40917986 9.51545194 7.80187345 8.03745649 7.1875 6.5625 C6.85105469 5.73878906 6.51460938 4.91507813 6.16796875 4.06640625 C5.11596912 1.66627512 5.11596912 1.66627512 2 1 C2 2.98 2 4.96 2 7 C1.01 6.34 0.02 5.68 -1 5 C-0.67 3.35 -0.34 1.7 0 0 Z " fill="#122528" transform="translate(97,33)"/>
<path d="M0 0 C1.5625 1.75 1.5625 1.75 3 4 C2.6875 6.25 2.6875 6.25 2 8 C2.99 8.721875 3.98 9.44375 5 10.1875 C7.94793497 12.6095123 7.94793497 12.6095123 8.375 15.8125 C8.25125 16.534375 8.1275 17.25625 8 18 C7.67 17.34 7.34 16.68 7 16 C4.67843403 15.59270772 2.3431213 15.25561323 0 15 C-0.12375 13.88625 -0.2475 12.7725 -0.375 11.625 C-0.6465813 7.96896323 -0.6465813 7.96896323 -3 6 C-2.63318342 3.06546739 -2.13562754 2.13562754 0 0 Z " fill="#030709" transform="translate(31,4)"/>
<path d="M0 0 C0 1.65 0 3.3 0 5 C0.66 5 1.32 5 2 5 C3.625 7 3.625 7 5 9 C4.071875 8.95875 3.14375 8.9175 2.1875 8.875 C-1.15809719 8.72863661 -1.15809719 8.72863661 -4 11 C-4 9.68 -4 8.36 -4 7 C-5.65 7 -7.3 7 -9 7 C-9 6.67 -9 6.34 -9 6 C-10.65 5.67 -12.3 5.34 -14 5 C-14 4.67 -14 4.34 -14 4 C-12.7625 3.896875 -11.525 3.79375 -10.25 3.6875 C-6.27295746 3.20969277 -3.5522304 0 0 0 Z " fill="#1B4042" transform="translate(36,72)"/>
<path d="M0 0 C3.09166196 2.8921999 4.82193098 4.75136093 5.16796875 9.12109375 C5.17441406 9.88550781 5.18085937 10.64992188 5.1875 11.4375 C5.20167969 12.19933594 5.21585938 12.96117187 5.23046875 13.74609375 C4.97612666 16.23347315 4.24017196 17.84808106 3 20 C2.34 20 1.68 20 1 20 C1 16.66666667 1 13.33333333 1 10 C0.67 10 0.34 10 0 10 C-1.125 2.25 -1.125 2.25 0 0 Z " fill="#050C0D" transform="translate(52,4)"/>
<path d="M0 0 C2.14699969 3.44175522 2.09856795 5.7720292 1.625 9.75 C1.45871094 11.22726563 1.45871094 11.22726563 1.2890625 12.734375 C1.14597656 13.85585937 1.14597656 13.85585937 1 15 C0.67 15 0.34 15 0 15 C-0.33 13.35 -0.66 11.7 -1 10 C-1.99 10 -2.98 10 -4 10 C-6.1875 7.5 -6.1875 7.5 -8 5 C-5.72541886 1.64228499 -4.30291326 0 0 0 Z " fill="#121B1F" transform="translate(71,77)"/>
<path d="M0 0 C2.2109885 0.42793326 3.98119242 0.99059621 6 2 C6.59355614 4.64860427 6.74209269 7.29197322 7 10 C5.02 10.99 5.02 10.99 3 12 C3.0928125 13.175625 3.0928125 13.175625 3.1875 14.375 C3.125625 15.24125 3.06375 16.1075 3 17 C2.01 17.66 1.02 18.32 0 19 C-1.10844919 15.67465243 -0.84454356 13.37817425 0 10 C1.32 10 2.64 10 4 10 C3.505 9.05125 3.01 8.1025 2.5 7.125 C1 4 1 4 1 2 C0.34 1.67 -0.32 1.34 -1 1 C-0.67 0.67 -0.34 0.34 0 0 Z " fill="#1D3E41" transform="translate(57,39)"/>
<path d="M0 0 C0.33 0 0.66 0 1 0 C1.33 2.64 1.66 5.28 2 8 C6.0100934 8.17864631 6.0100934 8.17864631 10 8 C10.66 7.34 11.32 6.68 12 6 C11.67 8.31 11.34 10.62 11 13 C11.99 13.33 12.98 13.66 14 14 C13.67 14.66 13.34 15.32 13 16 C7.32731724 14.75200979 4.17442997 13.07503878 0 9 C-1.15941038 5.52176885 -0.70820884 3.54104422 0 0 Z " fill="#12353C" transform="translate(8,62)"/>
<path d="M0 0 C0.99 0.33 1.98 0.66 3 1 C2.01 1.33 1.02 1.66 0 2 C0.28427417 3.58467728 0.57774818 5.1677057 0.875 6.75 C1.03742188 7.63171875 1.19984375 8.5134375 1.3671875 9.421875 C1.98723508 11.94799478 2.53916047 13.84718385 4 16 C5.93981618 16.90609992 5.93981618 16.90609992 8.125 17.25 C9.40375 17.4975 10.6825 17.745 12 18 C12 18.66 12 19.32 12 20 C6.71442634 20.50338797 4.09049661 19.34676996 0 16 C-1.95557924 12.92128403 -2.27159572 10.4922824 -2.25 6.875 C-2.25773437 5.57175781 -2.25773437 5.57175781 -2.265625 4.2421875 C-2 2 -2 2 0 0 Z " fill="#6DCBD1" transform="translate(92,33)"/>
<path d="M0 0 C9.42857143 0.94285714 9.42857143 0.94285714 12 3 C12.75 5.625 12.75 5.625 13 8 C11.35 7.67 9.7 7.34 8 7 C8 6.34 8 5.68 8 5 C5.08482708 6.07401108 3.22189824 6.77810176 1 9 C0.67 6.03 0.34 3.06 0 0 Z " fill="#101C1E" transform="translate(20,76)"/>
<path d="M0 0 C0.66 0.99 1.32 1.98 2 3 C5.93075644 2.42547254 5.93075644 2.42547254 9 0 C11.68839385 -0.26991906 14.29141936 -0.08737357 17 0 C16.67 0.66 16.34 1.32 16 2 C14.35 2 12.7 2 11 2 C10.835 2.639375 10.67 3.27875 10.5 3.9375 C9 6 9 6 7.15625 6.3828125 C5.73174859 6.50152095 4.30374158 6.58425808 2.875 6.62890625 C2.25625 6.75136719 1.6375 6.87382813 1 7 C0.34 7.99 -0.32 8.98 -1 10 C-2.31223496 6.06329512 -1.24296256 3.87511856 0 0 Z " fill="#325767" transform="translate(15,107)"/>
<path d="M0 0 C0.99 0.33 1.98 0.66 3 1 C2.95359375 1.64066406 2.9071875 2.28132813 2.859375 2.94140625 C2.59584381 9.25674309 3.19566838 12.89132611 7 18 C7.99 18.33 8.98 18.66 10 19 C10 19.99 10 20.98 10 22 C7.5967062 21.61055367 6.29334399 21.29413467 4.55078125 19.546875 C0.03956529 13.00063101 -0.15308921 7.80754983 0 0 Z " fill="#74CCD0" transform="translate(47,37)"/>
<path d="M0 0 C2.84574968 1.27568089 5.18089981 2.41496289 7 5 C6.6875 7.6875 6.6875 7.6875 6 10 C5.01 10.33 4.02 10.66 3 11 C2.67 10.34 2.34 9.68 2 9 C2.66 9 3.32 9 4 9 C2.515 6.03 2.515 6.03 1 3 C0.34 3.66 -0.32 4.32 -1 5 C-0.72382467 6.94074861 -0.72382467 6.94074861 0 9 C0.33333333 10.33333333 0.66666667 11.66666667 1 13 C-0.65 11.35 -2.3 9.7 -4 8 C-1.125 1.125 -1.125 1.125 0 0 Z " fill="#262B30" transform="translate(30,2)"/>
<path d="M0 0 C0.33 1.32 0.66 2.64 1 4 C4.40320934 4.67673447 4.40320934 4.67673447 8 5 C8.66 4.34 9.32 3.68 10 3 C10 5.97 10 8.94 10 12 C8.02 12.99 8.02 12.99 6 14 C5.67 11.69 5.34 9.38 5 7 C3.02 6.34 1.04 5.68 -1 5 C-0.67 3.35 -0.34 1.7 0 0 Z " fill="#112222" transform="translate(30,15)"/>
<path d="M0 0 C0.33 0 0.66 0 1 0 C1.08636719 0.92941406 1.17273437 1.85882813 1.26171875 2.81640625 C2.27940482 11.77017639 3.60538642 16.60538642 10 23 C9.34 23 8.68 23 8 23 C7.67 23.66 7.34 24.32 7 25 C-2.21138826 11.19299572 -2.21138826 11.19299572 -0.5 1.9140625 C-0.335 1.28242187 -0.17 0.65078125 0 0 Z " fill="#41929A" transform="translate(46,37)"/>
<path d="M0 0 C2.1519437 3.22791555 2.20086443 4.28400809 2 8 C1.01 8.33 0.02 8.66 -1 9 C-1.33 7.02 -1.66 5.04 -2 3 C-3.65 2.67 -5.3 2.34 -7 2 C-6.67 4.31 -6.34 6.62 -6 9 C-6.66 9 -7.32 9 -8 9 C-9.3260274 3.57534247 -9.3260274 3.57534247 -7.9375 1.125 C-5.15230863 -0.49220789 -3.15728506 -0.40305767 0 0 Z " fill="#164951" transform="translate(55,27)"/>
<path d="M0 0 C0.33 0 0.66 0 1 0 C1.33 2.97 1.66 5.94 2 9 C-1.3 8.67 -4.6 8.34 -8 8 C-8 5.69 -8 3.38 -8 1 C-7.01 1.495 -7.01 1.495 -6 2 C-6 3.32 -6 4.64 -6 6 C-4.35 6 -2.7 6 -1 6 C-1.020625 5.195625 -1.04125 4.39125 -1.0625 3.5625 C-1 1 -1 1 0 0 Z " fill="#0B1C1D" transform="translate(50,16)"/>
<path d="M0 0 C2.97 0 5.94 0 9 0 C8.01 0.33 7.02 0.66 6 1 C6.66 1.99 7.32 2.98 8 4 C8 5.32 8 6.64 8 8 C5 8 5 8 2.3125 5.6875 C0 3 0 3 0 0 Z " fill="#252C2E" transform="translate(34,0)"/>
<path d="M0 0 C0.928125 0.0825 1.85625 0.165 2.8125 0.25 C-0.9375 2.25 -0.9375 2.25 -3.1875 2.25 C-3.166875 3.44625 -3.14625 4.6425 -3.125 5.875 C-3.11867429 9.43004869 -3.48861125 12.75555624 -4.1875 16.25 C-4.8475 16.25 -5.5075 16.25 -6.1875 16.25 C-6.1875 14.93 -6.1875 13.61 -6.1875 12.25 C-6.8475 11.92 -7.5075 11.59 -8.1875 11.25 C-7.5275 10.92 -6.8675 10.59 -6.1875 10.25 C-6.2803125 8.88875 -6.2803125 8.88875 -6.375 7.5 C-6.1875 4.25 -6.1875 4.25 -5.0625 1.875 C-3.1875 0.25 -3.1875 0.25 0 0 Z " fill="#2B5E61" transform="translate(50.1875,25.75)"/>
<path d="M0 0 C0.66 0.33 1.32 0.66 2 1 C3.28571429 7.42857143 3.28571429 7.42857143 2 10 C0.02 10 -1.96 10 -4 10 C-3.01 9.67 -2.02 9.34 -1 9 C-1.33 6.69 -1.66 4.38 -2 2 C-1.34 2 -0.68 2 0 2 C0 1.34 0 0.68 0 0 Z " fill="#0C171C" transform="translate(107,35)"/>
<path d="M0 0 C0 3.92896395 -1.00299863 7.19893228 -2 11 C-2.33 11 -2.66 11 -3 11 C-3.33 9.02 -3.66 7.04 -4 5 C-4.33 6.65 -4.66 8.3 -5 10 C-6.65 10 -8.3 10 -10 10 C-9.34 9.34 -8.68 8.68 -8 8 C-7.938125 7.38125 -7.87625 6.7625 -7.8125 6.125 C-6.45300218 2.56939033 -3.30430383 1.68219104 0 0 Z " fill="#1C3F3F" transform="translate(54,12)"/>
<path d="M0 0 C0.99 0.495 0.99 0.495 2 1 C2 1.66 2 2.32 2 3 C5.79541663 5.21399303 9.75629421 6.00980198 14 7 C13.34 8.32 12.68 9.64 12 11 C11.67 10.34 11.34 9.68 11 9 C9.63875 8.8453125 9.63875 8.8453125 8.25 8.6875 C4.12778594 7.81549318 2.61855442 6.23468487 0 3 C0 2.01 0 1.02 0 0 Z " fill="#387076" transform="translate(90,46)"/>
<path d="M0 0 C2.31838725 0.9273549 3.71252084 1.54341546 5.0625 3.6875 C5.371875 4.450625 5.68125 5.21375 6 6 C6.5405344 7.25049004 7.08227091 8.50046092 7.625 9.75 C8.07875 10.8225 8.5325 11.895 9 13 C8.01 13.495 8.01 13.495 7 14 C6.0106909 12.61133677 5.03396922 11.21370149 4.0625 9.8125 C3.51722656 9.03519531 2.97195312 8.25789063 2.41015625 7.45703125 C0.9543711 4.92049701 0.40386565 2.8781818 0 0 Z " fill="#0D2020" transform="translate(23,22)"/>
<path d="M0 0 C0.66 0.33 1.32 0.66 2 1 C-3.11844133 5.52327373 -7.17839326 7.8305817 -14 9 C-10.38216587 4.55993084 -5.28163799 2.01511972 0 0 Z " fill="#326B71" transform="translate(50,63)"/>
<path d="M0 0 C2.83374881 3.20336822 3.5205537 5.78087253 4 10 C1.69 11.32 -0.62 12.64 -3 14 C-2.42655063 11.13275314 -2.1385485 10.1385485 0 8 C0.24212873 6.01871492 0.24212873 6.01871492 0.125 3.875 C0.063125 1.956875 0.063125 1.956875 0 0 Z " fill="#23444A" transform="translate(76,29)"/>
<path d="M0 0 C0.33 0 0.66 0 1 0 C1 2.31 1 4.62 1 7 C1.66 7 2.32 7 3 7 C2.67 7.99 2.34 8.98 2 10 C-1.3 10 -4.6 10 -8 10 C-8.33 10.99 -8.66 11.98 -9 13 C-9.33 12.34 -9.66 11.68 -10 11 C-8.875 9 -8.875 9 -7 7 C-3.8125 6.75 -3.8125 6.75 -1 7 C-0.67 4.69 -0.34 2.38 0 0 Z " fill="#132B2D" transform="translate(52,17)"/>
<path d="M0 0 C1.65 0.33 3.3 0.66 5 1 C4.42274324 4.89648316 2.68124732 7.1697945 0 10 C-2.75 11.3125 -2.75 11.3125 -5 12 C-4.175 11.13375 -3.35 10.2675 -2.5 9.375 C-0.34134101 6.82109359 -0.0123706 6.13360249 0.3125 2.625 C0.209375 1.75875 0.10625 0.8925 0 0 Z " fill="#5793A8" transform="translate(96,54)"/>
<path d="M0 0 C2.79872437 2.52788007 4.45773019 4.20411134 5 8 C3.35 8.66 1.7 9.32 0 10 C-1.125 2.25 -1.125 2.25 0 0 Z " fill="#162022" transform="translate(52,4)"/>
<path d="M0 0 C1.32 0 2.64 0 4 0 C4 0.99 4 1.98 4 3 C4.99 3 5.98 3 7 3 C7 3.99 7 4.98 7 6 C6.01 6.33 5.02 6.66 4 7 C3.34 7.66 2.68 8.32 2 9 C1.34 8.34 0.68 7.68 0 7 C0.66 7 1.32 7 2 7 C1.34 4.69 0.68 2.38 0 0 Z " fill="#30595A" transform="translate(40,1)"/>
<path d="M0 0 C0.33 0 0.66 0 1 0 C1 1.65 1 3.3 1 5 C1.66 5 2.32 5 3 5 C3.99 8.3 4.98 11.6 6 15 C2 13 2 13 0.75 10.875 C-0.22875273 7.12311455 -0.13130728 3.8735649 0 0 Z " fill="#438585" transform="translate(92,35)"/>
<path d="M0 0 C2.64 0 5.28 0 8 0 C6.7934375 0.9590625 6.7934375 0.9590625 5.5625 1.9375 C3.7249496 3.40603502 3.7249496 3.40603502 2 5 C-0.67058851 5.14115161 -3.32432238 5.04247107 -6 5 C-6 4.67 -6 4.34 -6 4 C-4.02 4 -2.04 4 0 4 C0 2.68 0 1.36 0 0 Z " fill="#51D0E4" transform="translate(28,71)"/>
<path d="M0 0 C1.65 0 3.3 0 5 0 C7.42857143 6.28571429 7.42857143 6.28571429 6 10 C4.68 10.33 3.36 10.66 2 11 C2.165 9.88625 2.33 8.7725 2.5 7.625 C3.0455458 4.27967967 3.0455458 4.27967967 3 2 C2.01 1.67 1.02 1.34 0 1 C0 0.67 0 0.34 0 0 Z " fill="#327E86" transform="translate(14,60)"/>
<path d="M0 0 C0.66 1.32 1.32 2.64 2 4 C-0.31 5.32 -2.62 6.64 -5 8 C-5.66 7.34 -6.32 6.68 -7 6 C-6.01 6 -5.02 6 -4 6 C-4 4.68 -4 3.36 -4 2 C-2.68 1.34 -1.36 0.68 0 0 Z " fill="#61D5EE" transform="translate(51,58)"/>
<path d="M0 0 C3 3.625 3 3.625 3 7 C1.125 7.625 1.125 7.625 -1 8 C-1.66 7.34 -2.32 6.68 -3 6 C-2.63318342 3.06546739 -2.13562754 2.13562754 0 0 Z " fill="#17181A" transform="translate(31,4)"/>
<path d="M0 0 C0.33 0 0.66 0 1 0 C1.12117188 0.66386719 1.24234375 1.32773437 1.3671875 2.01171875 C2.22547708 6.53424459 3.03971311 10.79938524 5 15 C1.125 14.125 1.125 14.125 0 13 C-0.07258946 10.81360547 -0.08373783 8.62499611 -0.0625 6.4375 C-0.05347656 5.23996094 -0.04445313 4.04242188 -0.03515625 2.80859375 C-0.02355469 1.88175781 -0.01195313 0.95492187 0 0 Z " fill="#366062" transform="translate(66,50)"/>
<path d="M0 0 C0.99 0 1.98 0 3 0 C3 0.99 3 1.98 3 3 C3.66 3 4.32 3 5 3 C4.67 3.99 4.34 4.98 4 6 C2.35 6.33 0.7 6.66 -1 7 C-0.67 4.69 -0.34 2.38 0 0 Z " fill="#193138" transform="translate(18,104)"/>
<path d="M0 0 C1.65 0 3.3 0 5 0 C5.33 1.65 5.66 3.3 6 5 C5.01 5.495 5.01 5.495 4 6 C1.875 5.0625 1.875 5.0625 0 4 C0 2.68 0 1.36 0 0 Z " fill="#1F5555" transform="translate(61,105)"/>
<path d="M0 0 C0.33 0.66 0.66 1.32 1 2 C1.66 2.33 2.32 2.66 3 3 C2.195625 3.45375 1.39125 3.9075 0.5625 4.375 C-2.08856572 5.74725665 -2.08856572 5.74725665 -3 8 C-4.65 7.67 -6.3 7.34 -8 7 C-5.60490662 4.10067643 -3.68754757 3.49831724 0 3 C0 2.01 0 1.02 0 0 Z " fill="#1D3C3E" transform="translate(67,74)"/>
<path d="M0 0 C0 0.66 0 1.32 0 2 C-0.99 2 -1.98 2 -3 2 C-3.66 3.65 -4.32 5.3 -5 7 C-6.98 7 -8.96 7 -11 7 C-4.48275862 0 -4.48275862 0 0 0 Z " fill="#78C8CD" transform="translate(82,38)"/>
<path d="M0 0 C1.58246707 -0.08153933 3.16616273 -0.13943557 4.75 -0.1875 C6.07257812 -0.23970703 6.07257812 -0.23970703 7.421875 -0.29296875 C10.44671583 0.05076316 11.75583602 1.00227459 14 3 C13.071875 2.95875 12.14375 2.9175 11.1875 2.875 C7.84190281 2.72863661 7.84190281 2.72863661 5 5 C5 3.68 5 2.36 5 1 C3.35 1 1.7 1 0 1 C0 0.67 0 0.34 0 0 Z " fill="#224B4B" transform="translate(27,78)"/>
<path d="M0 0 C0.99 0 1.98 0 3 0 C5.35723489 2.53184488 6 3.47190093 6 7 C4.125 6.875 4.125 6.875 2 6 C0.75 2.9375 0.75 2.9375 0 0 Z " fill="#306064" transform="translate(71,58)"/>
<path d="M0 0 C2.5 1.1875 2.5 1.1875 5 3 C5.3125 5.6875 5.3125 5.6875 5 8 C3.0625 7.375 3.0625 7.375 1 6 C0.25 2.875 0.25 2.875 0 0 Z " fill="#78CACC" transform="translate(100,35)"/>
<path d="M0 0 C0.433125 0.639375 0.86625 1.27875 1.3125 1.9375 C2.91239177 4.26746003 2.91239177 4.26746003 6 5 C6 6.32 6 7.64 6 9 C2.66476748 7.61990379 0.81392049 6.15049348 -1 3 C-0.67 2.01 -0.34 1.02 0 0 Z " fill="#6DC6D5" transform="translate(71,60)"/>
<path d="M0 0 C0.33 1.32 0.66 2.64 1 4 C2.65 4.33 4.3 4.66 6 5 C6.33 5.99 6.66 6.98 7 8 C4.69 7.67 2.38 7.34 0 7 C0 4.69 0 2.38 0 0 Z " fill="#1E5455" transform="translate(11,53)"/>
<path d="M0 0 C1.32 0 2.64 0 4 0 C4.33 2.31 4.66 4.62 5 7 C4.01 7.33 3.02 7.66 2 8 C1.34 5.36 0.68 2.72 0 0 Z " fill="#0D373B" transform="translate(52,28)"/>
<path d="M0 0 C0.66 0 1.32 0 2 0 C2.268125 0.639375 2.53625 1.27875 2.8125 1.9375 C3.88667752 4.33131686 3.88667752 4.33131686 7 5 C7 5.99 7 6.98 7 8 C4.24542282 7.62005832 3.17979426 7.1926367 1.25 5.125 C0 3 0 3 0 0 Z " fill="#62C9D7" transform="translate(50,51)"/>
<path d="M0 0 C0.66 0 1.32 0 2 0 C2.33 1.32 2.66 2.64 3 4 C2.01 4 1.02 4 0 4 C0 5.65 0 7.3 0 9 C-0.66 8.67 -1.32 8.34 -2 8 C-1.125 1.125 -1.125 1.125 0 0 Z " fill="#335262" transform="translate(57,107)"/>
<path d="M0 0 C-2 2 -2 2 -3.875 2.265625 C-4.57625 2.26046875 -5.2775 2.2553125 -6 2.25 C-6.70125 2.25515625 -7.4025 2.2603125 -8.125 2.265625 C-10 2 -10 2 -12 0 C-11.05125 0.020625 -10.1025 0.04125 -9.125 0.0625 C-0.375 -0.1125 -0.375 -0.1125 0 0 Z " fill="#5794A8" transform="translate(89,69)"/>
<path d="M0 0 C0.66 0 1.32 0 2 0 C1.34 1.98 0.68 3.96 0 6 C-0.66 6 -1.32 6 -2 6 C-2 5.34 -2 4.68 -2 4 C-3.98 4 -5.96 4 -8 4 C-8 3.67 -8 3.34 -8 3 C-5.36 2.67 -2.72 2.34 0 2 C0 1.34 0 0.68 0 0 Z " fill="#417583" transform="translate(106,47)"/>
<path d="M0 0 C0.33 0.99 0.66 1.98 1 3 C1.66 3.33 2.32 3.66 3 4 C3 4.66 3 5.32 3 6 C1.68 6.33 0.36 6.66 -1 7 C-1.99 5.35 -2.98 3.7 -4 2 C-2.68 2 -1.36 2 0 2 C0 1.34 0 0.68 0 0 Z " fill="#1B3237" transform="translate(105,41)"/>
<path d="M0 0 C0.99 0 1.98 0 3 0 C3.33 0.99 3.66 1.98 4 3 C4.99 3.33 5.98 3.66 7 4 C7 4.66 7 5.32 7 6 C4.625 5.8125 4.625 5.8125 2 5 C0.6875 2.4375 0.6875 2.4375 0 0 Z " fill="#0D2124" transform="translate(58,106)"/>
<path d="M0 0 C0.66 0 1.32 0 2 0 C3.0326802 2.78823655 3.04509293 3.8677274 2.0625 6.75 C1.711875 7.4925 1.36125 8.235 1 9 C0.34 9 -0.32 9 -1 9 C-0.67 6.03 -0.34 3.06 0 0 Z " fill="#030B0B" transform="translate(5,41)"/>
<path d="M0 0 C2.475 0.495 2.475 0.495 5 1 C5 2.65 5 4.3 5 6 C4.34 5.67 3.68 5.34 3 5 C3 4.34 3 3.68 3 3 C2.01 3 1.02 3 0 3 C0 2.01 0 1.02 0 0 Z " fill="#202528" transform="translate(44,1)"/>
<path d="M0 0 C0.66 0 1.32 0 2 0 C1.67 1.65 1.34 3.3 1 5 C-0.65 5 -2.3 5 -4 5 C-3.34 4.67 -2.68 4.34 -2 4 C-0.86649466 1.98330173 -0.86649466 1.98330173 0 0 Z " fill="#15272B" transform="translate(72,103)"/>
<path d="M0 0 C0.66 0 1.32 0 2 0 C3.25664978 2.90600261 4 4.79604584 4 8 C3.34 8 2.68 8 2 8 C0.74335022 5.09399739 0 3.20395416 0 0 Z " fill="#308C8D" transform="translate(21,60)"/>
<path d="M0 0 C0.99 0 1.98 0 3 0 C3.33 1.65 3.66 3.3 4 5 C3.01 5.66 2.02 6.32 1 7 C0.67 4.69 0.34 2.38 0 0 Z " fill="#0C2222" transform="translate(105,37)"/>
<path d="M0 0 C2.97 0.33 5.94 0.66 9 1 C9 1.33 9 1.66 9 2 C6.03 2.66 3.06 3.32 0 4 C0 2.68 0 1.36 0 0 Z " fill="#122F2F" transform="translate(23,78)"/>
<path d="M0 0 C0.33 0 0.66 0 1 0 C1.33 2.64 1.66 5.28 2 8 C2.99 8.33 3.98 8.66 5 9 C3.68 9.33 2.36 9.66 1 10 C-0.80411967 7.24075815 -1.0127245 6.11027897 -0.625 2.75 C-0.41875 1.8425 -0.2125 0.935 0 0 Z " fill="#2D4E56" transform="translate(8,62)"/>
<path d="M0 0 C0.99 0 1.98 0 3 0 C3.66 1.65 4.32 3.3 5 5 C3.68 4.67 2.36 4.34 1 4 C0.67 2.68 0.34 1.36 0 0 Z " fill="#306667" transform="translate(96,45)"/>
<path d="M0 0 C0.66 0 1.32 0 2 0 C2 2.31 2 4.62 2 7 C1.01 6.34 0.02 5.68 -1 5 C-0.67 3.35 -0.34 1.7 0 0 Z " fill="#162E30" transform="translate(97,33)"/>
</svg>
